<svg xmlns="http://www.w3.org/2000/svg" viewBox="0 0 940.8 578.3" class="h-full w-full scale-[1.2]">
    <defs>
        <style>.result-2_svg__st0{fill:#2c3345}.result-2_svg__st1{stroke-dasharray:8
            8;fill:none;stroke-linecap:round;stroke-linejoin:round;stroke:#97b4d9;stroke-width:4px}
        </style>
    </defs>
    <path d="M49.4 470.2h840.8"
          style="fill:none;stroke-linecap:round;stroke-linejoin:round;stroke:#97b4d9;stroke-width:4"></path>
    <path d="M243.8 413.8v56.3M356.8 273.2v197M469.8 110.4v359.7M582.8 273.2v197M695.9 413.8v56.3"
          class="result-2_svg__st1"></path>
    <path d="M890.2 468.2s-142.2 2.4-235.8-87.3-108-271.7-184.6-271.7-91 181.9-184.6 271.7-235.8 87.3-235.8 87.3"
          style="fill:none;stroke-linecap:round;stroke-linejoin:round;stroke:#1381ff;stroke-width:6"></path>
    <path d="M102.6 421.1v-1.2c0-.8.2-1.6.5-2.3.4-.7.9-1.3 1.6-1.7s1.5-.7 2.5-.7 1.9.2 2.5.7c.7.4 1.2 1 1.5 1.7.4.7.5 1.5.5 2.3v1.2c0 .8-.2 1.6-.5 2.3s-.9 1.3-1.6 1.7-1.5.7-2.5.7-1.8-.2-2.5-.7c-.7-.4-1.2-1-1.6-1.7-.3-.7-.5-1.5-.5-2.3Zm2.8-1.2v1.2c0 .6.1 1.1.4 1.5.3.5.7.7 1.4.7s1.2-.2 1.4-.7c.3-.5.4-1 .4-1.6v-1.2c0-.6-.1-1.1-.4-1.6-.2-.5-.7-.7-1.4-.7s-1.1.2-1.4.7-.4 1-.4 1.6Zm-13.9-11.3v-1.1c0-.9.2-1.6.5-2.3.4-.7.9-1.3 1.6-1.7s1.5-.6 2.5-.6 1.8.2 2.5.6 1.2 1 1.6 1.7c.3.7.5 1.5.5 2.3v1.1c0 .9-.2 1.6-.5 2.3s-.9 1.3-1.6 1.7-1.5.6-2.5.6-1.8-.2-2.5-.6-1.2-1-1.6-1.7-.5-1.5-.5-2.3m2.9-1.2v1.1c0 .6.1 1.1.4 1.6s.7.7 1.4.7 1.1-.2 1.4-.7.4-1 .4-1.6v-1.1c0-.6-.1-1.1-.4-1.6-.2-.5-.7-.7-1.4-.7s-1.1.2-1.4.7-.4 1-.4 1.6m-1.6 17.8 15-21.8h2.7l-15 21.8zM85.4 403.3v21.8h-4v-18h-.1l-5.1 3.3v-3.6l5.4-3.5zM73 425.4c-.6 0-1.2-.2-1.7-.7s-.7-1-.7-1.7c0-.6.2-1.2.7-1.6.5-.5 1-.7 1.7-.7s1.2.2 1.6.7c.5.5.7 1 .7 1.6q0 .6-.3 1.2c-.2.4-.5.6-.9.9q-.45.3-1.2.3ZM59.5 425.6c-1.8 0-3.3-.4-4.5-1.3s-2.2-2.2-2.9-3.9-1-3.7-1-6.1.3-4.4 1-6.1 1.6-3 2.9-3.8c1.3-.9 2.8-1.3 4.5-1.3s3.2.4 4.5 1.3 2.2 2.2 2.9 3.8c.7 1.7 1 3.7 1 6.1s-.3 4.4-1 6.1-1.6 3-2.9 3.9c-1.2.9-2.8 1.3-4.5 1.3m0-3.4c1.4 0 2.4-.7 3.2-2s1.2-3.3 1.2-6-.2-3.2-.5-4.4q-.6-1.8-1.5-2.7c-.7-.6-1.4-.9-2.3-.9-1.4 0-2.4.7-3.2 2s-1.2 3.3-1.2 5.9c0 1.7.2 3.2.5 4.4q.6 1.8 1.5 2.7c.7.6 1.4.9 2.4.9zM878.7 421.1v-1.2c0-.8.2-1.6.5-2.3.4-.7.9-1.3 1.6-1.7s1.5-.7 2.5-.7 1.9.2 2.5.7c.7.4 1.2 1 1.5 1.7.4.7.5 1.5.5 2.3v1.2c0 .8-.2 1.6-.5 2.3-.4.7-.9 1.3-1.6 1.7s-1.5.7-2.5.7-1.8-.2-2.5-.7c-.7-.4-1.2-1-1.6-1.7-.3-.7-.5-1.5-.5-2.3Zm2.8-1.2v1.2c0 .6.1 1.1.4 1.5.3.5.7.7 1.4.7s1.2-.2 1.4-.7c.3-.5.4-1 .4-1.6v-1.2c0-.6-.1-1.1-.4-1.6-.2-.5-.7-.7-1.4-.7s-1.1.2-1.4.7-.4 1-.4 1.6Zm-13.9-11.3v-1.1c0-.9.2-1.6.5-2.3.4-.7.9-1.3 1.6-1.7s1.5-.6 2.5-.6 1.8.2 2.5.6 1.2 1 1.6 1.7c.3.7.5 1.5.5 2.3v1.1c0 .9-.2 1.6-.5 2.3s-.9 1.3-1.6 1.7-1.5.6-2.5.6-1.8-.2-2.5-.6-1.2-1-1.6-1.7-.5-1.5-.5-2.3m2.8-1.2v1.1c0 .6.1 1.1.4 1.6s.7.7 1.4.7 1.2-.2 1.4-.7c.3-.5.4-1 .4-1.6v-1.1c0-.6-.1-1.1-.4-1.6-.2-.5-.7-.7-1.4-.7s-1.1.2-1.4.7-.4 1-.4 1.6m-1.6 17.8 15-21.8h2.7l-15 21.8zM861.5 403.3v21.8h-4v-18h-.1l-5.1 3.3v-3.6l5.4-3.5zM849 425.4c-.6 0-1.2-.2-1.7-.7s-.7-1-.7-1.7c0-.6.2-1.2.7-1.6.5-.5 1-.7 1.7-.7s1.2.2 1.6.7c.5.5.7 1 .7 1.6q0 .6-.3 1.2c-.2.4-.5.6-.9.9q-.45.3-1.2.3ZM835.5 425.6c-1.8 0-3.3-.4-4.5-1.3s-2.2-2.2-2.9-3.9-1-3.7-1-6.1.3-4.4 1-6.1 1.6-3 2.9-3.8c1.3-.9 2.8-1.3 4.5-1.3s3.2.4 4.5 1.3 2.2 2.2 2.9 3.8c.7 1.7 1 3.7 1 6.1s-.3 4.4-1 6.1-1.6 3-2.9 3.9c-1.2.9-2.8 1.3-4.5 1.3m0-3.4c1.4 0 2.4-.7 3.2-2s1.2-3.3 1.2-6-.2-3.2-.5-4.4q-.6-1.8-1.5-2.7c-.7-.6-1.4-.9-2.3-.9-1.4 0-2.4.7-3.2 2s-1.2 3.3-1.2 5.9c0 1.7.2 3.2.5 4.4q.6 1.8 1.5 2.7c.7.6 1.4.9 2.4.9zM231.7 379.1v-1.2c0-.8.2-1.6.5-2.3.4-.7.9-1.3 1.6-1.7s1.5-.7 2.5-.7 1.9.2 2.5.7c.7.4 1.2 1 1.5 1.7.4.7.5 1.5.5 2.3v1.2c0 .8-.2 1.6-.5 2.3-.4.7-.9 1.3-1.6 1.7s-1.5.7-2.5.7-1.8-.2-2.5-.7c-.7-.4-1.2-1-1.6-1.7-.3-.7-.5-1.5-.5-2.3Zm2.8-1.2v1.2c0 .6.1 1.1.4 1.5.3.5.7.7 1.4.7s1.2-.2 1.4-.7c.3-.5.4-1 .4-1.6v-1.2c0-.6-.1-1.1-.4-1.6-.2-.5-.7-.7-1.4-.7s-1.1.2-1.4.7-.4 1-.4 1.6Zm-13.9-11.3v-1.1c0-.9.2-1.6.5-2.3.4-.7.9-1.3 1.6-1.7s1.5-.6 2.5-.6 1.8.2 2.5.6 1.2 1 1.6 1.7c.3.7.5 1.5.5 2.3v1.1c0 .9-.2 1.6-.5 2.3s-.9 1.3-1.6 1.7-1.5.6-2.5.6-1.8-.2-2.5-.6-1.2-1-1.6-1.7-.5-1.5-.5-2.3m2.8-1.2v1.1c0 .6.1 1.1.4 1.6s.7.7 1.4.7 1.2-.2 1.4-.7c.3-.5.4-1 .4-1.6v-1.1c0-.6-.1-1.1-.4-1.6-.2-.5-.7-.7-1.4-.7s-1.1.2-1.4.7-.4 1-.4 1.6m-1.6 17.8 15-21.8h2.7l-15 21.8zM214.5 361.3v21.8h-4v-18h-.1l-5.1 3.3v-3.6l5.4-3.5zM202 383.4c-.6 0-1.2-.2-1.7-.7s-.7-1-.7-1.7c0-.6.2-1.2.7-1.6.5-.5 1-.7 1.7-.7s1.2.2 1.6.7c.5.5.7 1 .7 1.6q0 .6-.3 1.2c-.2.4-.5.6-.9.9-.3.2-.7.3-1.1.3M181 383.2v-2.9l7.6-7.4c.7-.7 1.3-1.4 1.8-1.9.5-.6.8-1.1 1.1-1.7.2-.5.4-1.1.4-1.7s-.2-1.3-.5-1.8-.7-.9-1.3-1.2-1.2-.4-1.9-.4-1.3.1-1.9.4c-.5.3-1 .7-1.3 1.2s-.4 1.2-.4 1.9h-3.8q0-2.1.9-3.6c.9-1.5 1.5-1.8 2.6-2.4s2.4-.8 3.8-.8 2.7.3 3.9.8c1.1.5 2 1.3 2.6 2.2.6 1 .9 2 .9 3.3s-.2 1.6-.5 2.4-.9 1.7-1.7 2.6c-.8 1-1.9 2.1-3.3 3.5l-3.8 3.8c0 .1 9.5.1 9.5.1v3.3h-15ZM748.1 379.1v-1.2c0-.8.2-1.6.5-2.3.4-.7.9-1.3 1.6-1.7s1.5-.7 2.5-.7 1.9.2 2.5.7c.7.4 1.2 1 1.5 1.7.4.7.5 1.5.5 2.3v1.2c0 .8-.2 1.6-.5 2.3-.4.7-.9 1.3-1.6 1.7s-1.5.7-2.5.7-1.8-.2-2.5-.7c-.7-.4-1.2-1-1.6-1.7-.3-.7-.5-1.5-.5-2.3Zm2.7-1.2v1.2c0 .6.1 1.1.4 1.5.3.5.7.7 1.4.7s1.2-.2 1.4-.7c.3-.5.4-1 .4-1.6v-1.2c0-.6-.1-1.1-.4-1.6-.2-.5-.7-.7-1.4-.7s-1.1.2-1.4.7-.4 1-.4 1.6ZM737 366.6v-1.1c0-.9.2-1.6.5-2.3.4-.7.9-1.3 1.6-1.7s1.5-.6 2.5-.6 1.8.2 2.5.6 1.2 1 1.6 1.7c.3.7.5 1.5.5 2.3v1.1c0 .9-.2 1.6-.5 2.3s-.9 1.3-1.6 1.7-1.5.6-2.5.6-1.8-.2-2.5-.6-1.2-1-1.6-1.7-.5-1.5-.5-2.3m2.8-1.2v1.1c0 .6.1 1.1.4 1.6s.7.7 1.4.7 1.2-.2 1.4-.7c.3-.5.4-1 .4-1.6v-1.1c0-.6-.1-1.1-.4-1.6-.2-.5-.7-.7-1.4-.7s-1.1.2-1.4.7-.4 1-.4 1.6m-1.6 17.8 15-21.8h2.7l-15 21.8zM730.9 361.3v21.8h-4v-18h-.1l-5.1 3.3v-3.6l5.4-3.5zM718.4 383.4c-.6 0-1.2-.2-1.7-.7s-.7-1-.7-1.7c0-.6.2-1.2.7-1.6.5-.5 1-.7 1.7-.7s1.2.2 1.6.7c.5.5.7 1 .7 1.6q0 .6-.3 1.2c-.2.4-.5.6-.9.9q-.45.3-1.2.3ZM697.3 383.2v-2.9l7.6-7.4c.7-.7 1.3-1.4 1.8-1.9.5-.6.8-1.1 1.1-1.7.2-.5.4-1.1.4-1.7s-.2-1.3-.5-1.8-.7-.9-1.3-1.2-1.2-.4-1.9-.4-1.3.1-1.9.4c-.5.3-1 .7-1.3 1.2s-.4 1.2-.4 1.9h-3.8q0-2.1.9-3.6c.9-1.5 1.5-1.8 2.6-2.4s2.4-.8 3.8-.8 2.7.3 3.9.8c1.1.5 2 1.3 2.6 2.2.6 1 .9 2 .9 3.3s-.2 1.6-.5 2.4-.9 1.7-1.7 2.6c-.8 1-1.9 2.1-3.3 3.5l-3.8 3.8c0 .1 9.5.1 9.5.1v3.3h-15ZM344.7 243.1V242c0-.8.2-1.6.5-2.3.4-.7.9-1.3 1.6-1.7s1.5-.6 2.5-.6 1.9.2 2.5.6c.7.4 1.2 1 1.5 1.7.4.7.5 1.5.5 2.3v1.1c0 .8-.2 1.6-.5 2.3-.4.7-.9 1.3-1.6 1.7s-1.5.6-2.5.6-1.8-.2-2.5-.6-1.2-1-1.6-1.7c-.3-.7-.5-1.5-.5-2.3Zm2.8-1.2v1.1c0 .6.1 1.1.4 1.5.3.5.7.7 1.4.7s1.2-.2 1.4-.7c.3-.5.4-1 .4-1.6v-1.1c0-.6-.1-1.1-.4-1.6-.2-.5-.7-.7-1.4-.7s-1.1.2-1.4.7-.4 1-.4 1.6Zm-13.9-11.3v-1.1c0-.9.2-1.6.5-2.3.4-.7.9-1.3 1.6-1.7s1.5-.6 2.5-.6 1.8.2 2.5.6 1.2 1 1.6 1.7c.3.7.5 1.5.5 2.3v1.1c0 .9-.2 1.6-.5 2.3s-.9 1.3-1.6 1.7-1.5.6-2.5.6-1.8-.2-2.5-.6-1.2-1-1.6-1.7-.5-1.5-.5-2.3m2.8-1.2v1.1c0 .6.1 1.1.4 1.6s.7.7 1.4.7 1.2-.2 1.4-.7c.3-.5.4-1 .4-1.6v-1.1c0-.6-.1-1.1-.4-1.6-.2-.5-.7-.7-1.4-.7s-1.1.2-1.4.7-.4 1-.4 1.6m-1.6 17.8 15-21.8h2.7l-15 21.8zM321.6 247.5c-1 0-2.1-.2-3.1-.5-1-.4-1.9-.9-2.7-1.8-.8-.8-1.4-1.9-1.9-3.2-.5-1.4-.7-3-.7-5 0-1.9.2-3.5.6-5s1-2.7 1.7-3.7 1.6-1.8 2.7-2.3 2.2-.8 3.5-.8 2.6.3 3.6.8c1.1.5 1.9 1.3 2.6 2.2s1.1 2 1.2 3.2h-3.9c-.2-.8-.6-1.5-1.2-2s-1.4-.8-2.3-.8c-1.5 0-2.7.7-3.5 2s-1.2 3.1-1.2 5.4h.1c.3-.6.8-1.2 1.4-1.6s1.2-.8 1.9-1 1.4-.4 2.2-.4c1.3 0 2.4.3 3.4.9s1.8 1.5 2.4 2.5c.6 1.1.9 2.3.9 3.7s-.3 2.7-1 3.9c-.7 1.1-1.6 2-2.8 2.7s-2.6 1-4.1 1zm-.1-3.2q1.2 0 2.1-.6c.9-.6 1.1-.9 1.4-1.5s.5-1.4.5-2.2-.2-1.5-.5-2.1-.8-1.1-1.4-1.5-1.3-.6-2.1-.6-1.1.1-1.6.3-.9.5-1.3.9-.7.8-.9 1.3-.3 1-.3 1.6c0 .8.2 1.5.5 2.1s.8 1.1 1.4 1.5 1.3.6 2.1.6zM308.1 247.4c-.6 0-1.2-.2-1.7-.7s-.7-1-.7-1.7c0-.6.2-1.2.7-1.6s1-.7 1.7-.7 1.2.2 1.6.7c.5.5.7 1 .7 1.6q0 .6-.3 1.2c-.2.4-.5.6-.9.9q-.45.3-1.2.3ZM294.7 247.5c-1.5 0-2.9-.3-4.1-.8s-2.1-1.3-2.8-2.2-1.1-2-1.1-3.2h4q0 .9.6 1.5c.4.4.8.8 1.4 1s1.2.4 2 .4 1.5-.1 2.1-.4 1.1-.7 1.4-1.1c.3-.5.5-1.1.5-1.7 0-.7-.2-1.2-.5-1.7s-.9-.9-1.5-1.2c-.7-.3-1.4-.4-2.4-.4h-1.9v-3h1.9c.8 0 1.4-.1 2-.4s1-.6 1.4-1.1c.3-.5.5-1 .5-1.7 0-.6-.1-1.2-.4-1.6-.3-.5-.7-.8-1.2-1.1s-1.1-.4-1.8-.4-1.3.1-1.9.4c-.6.2-1 .6-1.4 1-.3.4-.5 1-.6 1.6h-3.8c0-1.2.4-2.3 1.1-3.2s1.6-1.7 2.7-2.2 2.4-.8 3.8-.8 2.7.3 3.8.8 1.9 1.3 2.5 2.2q.9 1.35.9 3c0 1.2-.4 2.3-1.1 3.1s-1.7 1.4-2.9 1.6v.2c1.5.2 2.7.8 3.5 1.7s1.2 2.1 1.2 3.4c0 1.2-.3 2.3-1 3.3s-1.6 1.7-2.9 2.3c-1.2.5-2.6.8-4.2.8ZM281.3 225.3v21.8h-4v-18h-.1l-5.1 3.3v-3.6l5.4-3.5zM656.6 243.1V242c0-.8.2-1.6.5-2.3.4-.7.9-1.3 1.6-1.7s1.5-.6 2.5-.6 1.9.2 2.5.6c.7.4 1.2 1 1.5 1.7.4.7.5 1.5.5 2.3v1.1c0 .8-.2 1.6-.5 2.3-.4.7-.9 1.3-1.6 1.7s-1.5.6-2.5.6-1.8-.2-2.5-.6-1.2-1-1.6-1.7c-.3-.7-.5-1.5-.5-2.3Zm2.8-1.2v1.1c0 .6.1 1.1.4 1.5.3.5.7.7 1.4.7s1.2-.2 1.4-.7c.3-.5.4-1 .4-1.6v-1.1c0-.6-.1-1.1-.4-1.6-.2-.5-.7-.7-1.4-.7s-1.1.2-1.4.7-.4 1-.4 1.6Zm-13.9-11.3v-1.1c0-.9.2-1.6.5-2.3.4-.7.9-1.3 1.6-1.7s1.5-.6 2.5-.6 1.8.2 2.5.6 1.2 1 1.6 1.7c.3.7.5 1.5.5 2.3v1.1c0 .9-.2 1.6-.5 2.3s-.9 1.3-1.6 1.7-1.5.6-2.5.6-1.8-.2-2.5-.6-1.2-1-1.6-1.7-.5-1.5-.5-2.3m2.8-1.2v1.1c0 .6.1 1.1.4 1.6s.7.7 1.4.7 1.2-.2 1.4-.7c.3-.5.4-1 .4-1.6v-1.1c0-.6-.1-1.1-.4-1.6-.2-.5-.7-.7-1.4-.7s-1.1.2-1.4.7-.4 1-.4 1.6m-1.6 17.8 15-21.8h2.7l-15 21.8zM633.5 247.5c-1 0-2.1-.2-3.1-.5-1-.4-1.9-.9-2.7-1.8-.8-.8-1.4-1.9-1.9-3.2-.5-1.4-.7-3-.7-5 0-1.9.2-3.5.6-5s1-2.7 1.7-3.7 1.6-1.8 2.7-2.3 2.2-.8 3.5-.8 2.6.3 3.6.8c1.1.5 1.9 1.3 2.6 2.2s1.1 2 1.2 3.2h-3.9c-.2-.8-.6-1.5-1.2-2s-1.4-.8-2.3-.8c-1.5 0-2.7.7-3.5 2s-1.2 3.1-1.2 5.4h.1c.3-.6.8-1.2 1.4-1.6s1.2-.8 1.9-1 1.4-.4 2.2-.4c1.3 0 2.4.3 3.4.9s1.8 1.5 2.4 2.5c.6 1.1.9 2.3.9 3.7s-.3 2.7-1 3.9c-.7 1.1-1.6 2-2.8 2.7s-2.6 1-4.1 1zm0-3.2q1.2 0 2.1-.6c.9-.6 1.1-.9 1.4-1.5s.5-1.4.5-2.2-.2-1.5-.5-2.1-.8-1.1-1.4-1.5-1.3-.6-2.1-.6-1.1.1-1.6.3-.9.5-1.3.9-.7.8-.9 1.3-.3 1-.3 1.6c0 .8.2 1.5.5 2.1s.8 1.1 1.4 1.5 1.3.6 2.1.6zM620.1 247.4c-.6 0-1.2-.2-1.7-.7s-.7-1-.7-1.7c0-.6.2-1.2.7-1.6.5-.5 1-.7 1.7-.7s1.2.2 1.6.7c.5.5.7 1 .7 1.6q0 .6-.3 1.2c-.2.4-.5.6-.9.9q-.45.3-1.2.3ZM606.6 247.5c-1.5 0-2.9-.3-4.1-.8s-2.1-1.3-2.8-2.2-1.1-2-1.1-3.2h4q0 .9.6 1.5c.4.4.8.8 1.4 1s1.2.4 2 .4 1.5-.1 2.1-.4 1.1-.7 1.4-1.1c.3-.5.5-1.1.5-1.7 0-.7-.2-1.2-.5-1.7s-.9-.9-1.5-1.2c-.7-.3-1.4-.4-2.4-.4h-1.9v-3h1.9c.8 0 1.4-.1 2-.4s1-.6 1.4-1.1c.3-.5.5-1 .5-1.7 0-.6-.1-1.2-.4-1.6-.3-.5-.7-.8-1.2-1.1s-1.1-.4-1.8-.4-1.3.1-1.9.4c-.6.2-1 .6-1.4 1-.3.4-.5 1-.6 1.6H599c0-1.2.4-2.3 1.1-3.2s1.6-1.7 2.7-2.2 2.4-.8 3.8-.8 2.7.3 3.8.8 1.9 1.3 2.5 2.2q.9 1.35.9 3c0 1.2-.4 2.3-1.1 3.1s-1.7 1.4-2.9 1.6v.2c1.5.2 2.7.8 3.5 1.7s1.2 2.1 1.2 3.4c0 1.2-.3 2.3-1 3.3s-1.6 1.7-2.9 2.3c-1.2.5-2.6.8-4.2.8ZM593.2 225.3v21.8h-4v-18h-.1l-5.1 3.3v-3.6l5.4-3.5zM500.5 85.1V84c0-.8.2-1.6.5-2.3.4-.7.9-1.3 1.6-1.7s1.5-.6 2.5-.6 1.9.2 2.5.6c.7.4 1.2 1 1.5 1.7.4.7.5 1.5.5 2.3v1.1c0 .8-.2 1.6-.5 2.3s-.9 1.3-1.6 1.7-1.5.6-2.5.6-1.8-.2-2.5-.6-1.2-1-1.6-1.7c-.3-.7-.5-1.5-.5-2.3Zm2.8-1.2V85c0 .6.1 1.1.4 1.5.3.5.7.7 1.4.7s1.2-.2 1.4-.7c.3-.5.4-1 .4-1.6v-1.1c0-.6-.1-1.1-.4-1.6-.2-.5-.7-.7-1.4-.7s-1.1.2-1.4.7-.4 1-.4 1.6Zm-13.9-11.3v-1.1c0-.9.2-1.6.5-2.3.4-.7.9-1.3 1.6-1.7s1.5-.6 2.5-.6 1.8.2 2.5.6 1.2 1 1.6 1.7c.3.7.5 1.5.5 2.3v1.1c0 .9-.2 1.6-.5 2.3s-.9 1.3-1.6 1.7-1.5.6-2.5.6-1.8-.2-2.5-.6-1.2-1-1.6-1.7-.5-1.5-.5-2.3m2.8-1.2v1.1c0 .6.1 1.1.4 1.6s.7.7 1.4.7 1.2-.2 1.4-.7c.3-.5.4-1 .4-1.6v-1.1c0-.6-.1-1.1-.4-1.6-.2-.5-.7-.7-1.4-.7s-1.1.2-1.4.7-.4 1-.4 1.6m-1.6 17.8 15-21.8h2.7l-15 21.8zM483.3 67.3v21.8h-4v-18h-.1l-5.1 3.3v-3.6l5.4-3.5zM470.8 89.4c-.6 0-1.2-.2-1.7-.7s-.7-1-.7-1.7c0-.6.2-1.2.7-1.6.5-.5 1-.7 1.7-.7s1.2.2 1.6.7c.5.5.7 1 .7 1.6q0 .6-.3 1.2c-.2.4-.5.6-.9.9-.3.2-.7.3-1.1.3M448.7 85.1V82l9.3-14.6h2.6v4.5H459l-6.2 9.9v.2h12.9v3.2h-17zm10.4 4.1V67.4h3.7v21.8H459zM437.4 89.5c-1.5 0-2.9-.3-4.1-.8s-2.1-1.3-2.8-2.2-1.1-2-1.1-3.2h4q0 .9.6 1.5c.4.4.8.8 1.4 1s1.2.4 2 .4 1.5-.1 2.1-.4 1.1-.7 1.4-1.1c.3-.5.5-1.1.5-1.7 0-.7-.2-1.2-.5-1.7s-.9-.9-1.5-1.2c-.7-.3-1.4-.4-2.4-.4h-1.9v-3h1.9c.8 0 1.4-.1 2-.4s1-.6 1.4-1.1c.3-.5.5-1 .5-1.7 0-.6-.1-1.2-.4-1.6-.3-.5-.7-.8-1.2-1.1s-1.1-.4-1.8-.4-1.3.1-1.9.4c-.6.2-1 .6-1.4 1-.3.4-.5 1-.6 1.6h-3.8c0-1.2.4-2.3 1.1-3.2s1.6-1.7 2.7-2.2 2.4-.8 3.8-.8 2.7.3 3.8.8 1.9 1.3 2.5 2.2q.9 1.35.9 3c0 1.2-.4 2.3-1.1 3.1s-1.7 1.4-2.9 1.6v.2c1.5.2 2.7.8 3.5 1.7s1.2 2.1 1.2 3.4c0 1.2-.3 2.3-1 3.3s-1.6 1.7-2.9 2.3c-1.2.5-2.6.8-4.2.8ZM148 510.5c-1.2 0-2.4-.2-3.4-.7s-1.8-1.2-2.4-2c-.6-.9-.9-1.9-1-3h2.6c0 1 .5 1.8 1.3 2.5.8.6 1.8 1 2.9 1s1.7-.2 2.4-.6 1.3-1 1.7-1.7.6-1.6.6-2.5-.2-1.8-.6-2.5c-.4-.8-1-1.3-1.7-1.8-.7-.4-1.6-.7-2.5-.7-.7 0-1.4 0-2.1.3-.7.2-1.3.5-1.7.8l-2.5-.3 1.3-10.7h11.3v2.3h-9.1l-.8 6.4h.1c.4-.4 1-.7 1.7-.9s1.4-.4 2.1-.4c1.3 0 2.5.3 3.6 1 1.1.6 1.9 1.5 2.5 2.6s.9 2.4.9 3.8-.3 2.6-.9 3.7-1.5 1.9-2.6 2.6c-1.1.6-2.3.9-3.7.9ZM129.7 510.5c-1.2 0-2.4-.2-3.4-.7s-1.8-1.2-2.4-2c-.6-.9-.9-1.9-1-3h2.6c0 1 .5 1.8 1.3 2.5.8.6 1.8 1 2.9 1s1.7-.2 2.4-.6 1.3-1 1.7-1.7.6-1.6.6-2.5-.2-1.8-.6-2.5c-.4-.8-1-1.3-1.7-1.8-.7-.4-1.6-.7-2.5-.7-.7 0-1.4 0-2.1.3-.7.2-1.3.5-1.7.8l-2.5-.3 1.3-10.7h11.3v2.3h-9.1l-.8 6.4h.1c.4-.4 1-.7 1.7-.9s1.4-.4 2.1-.4c1.3 0 2.5.3 3.6 1 1.1.6 1.9 1.5 2.5 2.6s.9 2.4.9 3.8-.3 2.6-.9 3.7-1.5 1.9-2.6 2.6c-1.1.6-2.3.9-3.7.9ZM251.7 510.5c-1.6 0-3-.4-4.1-1.3s-2-2.2-2.6-3.8c-.6-1.7-.9-3.7-.9-6.1s.3-4.4.9-6c.6-1.7 1.5-3 2.6-3.8 1.1-.9 2.5-1.3 4.1-1.3s3 .4 4.1 1.3 2 2.2 2.6 3.8q.9 2.55.9 6c0 3.45-.3 4.4-.9 6.1s-1.5 2.9-2.6 3.8-2.5 1.3-4.1 1.3m0-2.4c1.6 0 2.8-.8 3.7-2.3s1.3-3.7 1.3-6.6-.2-3.5-.6-4.8-1-2.3-1.7-3-1.6-1-2.7-1c-1.6 0-2.8.8-3.7 2.3s-1.3 3.7-1.3 6.6.2 3.5.6 4.8 1 2.3 1.7 3c.8.7 1.7 1 2.7 1M228.6 510.2l9.8-19.3v-.2h-11.2v-2.3h14v2.5l-9.7 19.3h-2.8ZM366.1 510.5c-1.2 0-2.4-.2-3.4-.7s-1.8-1.2-2.4-2c-.6-.9-.9-1.9-1-3h2.6c0 1 .5 1.8 1.3 2.5.8.6 1.8 1 2.9 1s1.7-.2 2.4-.6 1.3-1 1.7-1.7.6-1.6.6-2.5-.2-1.8-.6-2.5c-.4-.8-1-1.3-1.7-1.8-.7-.4-1.6-.7-2.5-.7-.7 0-1.4 0-2.1.3-.7.2-1.3.5-1.7.8l-2.5-.3 1.3-10.7h11.3v2.3h-9.1l-.8 6.4h.1c.4-.4 1-.7 1.7-.9s1.4-.4 2.1-.4c1.3 0 2.5.3 3.6 1 1.1.6 1.9 1.5 2.5 2.6s.9 2.4.9 3.8-.3 2.6-.9 3.7-1.5 1.9-2.6 2.6c-1.1.6-2.3.9-3.7.9ZM347.8 510.5c-1.5 0-2.8-.3-3.9-.8s-2-1.2-2.6-2.2c-.6-.9-.9-2-.9-3.2 0-.9.2-1.8.5-2.6.4-.8.9-1.4 1.5-2 .6-.5 1.4-.9 2.2-1-1-.4-1.9-1-2.5-1.9s-.9-1.9-.9-3.1c0-1.1.3-2.1.8-3 .6-.9 1.3-1.6 2.3-2.1s2.1-.8 3.4-.8 2.4.3 3.4.8 1.8 1.2 2.3 2.1q.9 1.35.9 3c0 1.2-.3 2.2-.9 3.1s-1.4 1.5-2.5 1.8c.8.3 1.5.6 2.1 1.1s1.1 1.2 1.5 2 .6 1.6.6 2.6c0 1.2-.3 2.2-1 3.2-.6.9-1.5 1.6-2.6 2.2-1.1.5-2.4.8-3.8.8Zm0-2.4c1 0 1.8-.2 2.6-.5.7-.3 1.3-.8 1.7-1.4s.6-1.3.6-2c0-.8-.2-1.6-.6-2.2s-1-1.1-1.7-1.5-1.5-.5-2.5-.5-1.8.2-2.5.5c-.7.4-1.3.9-1.7 1.5s-.6 1.4-.6 2.2.2 1.5.6 2c.4.6.9 1 1.7 1.4.7.3 1.6.5 2.6.5Zm0-10.3c.8 0 1.5-.2 2.1-.5s1.1-.8 1.4-1.3c.3-.6.5-1.2.5-2 0-.7-.2-1.4-.5-1.9-.3-.6-.8-1-1.4-1.3s-1.3-.5-2.1-.5-1.5.2-2.1.5-1.1.7-1.4 1.3c-.3.5-.5 1.2-.5 1.9 0 .8.2 1.4.5 2s.8 1 1.4 1.3 1.3.5 2.1.5M485.7 510.5c-1.6 0-3-.4-4.1-1.3s-2-2.2-2.6-3.8c-.6-1.7-.9-3.7-.9-6.1s.3-4.4.9-6c.6-1.7 1.5-3 2.6-3.8 1.1-.9 2.5-1.3 4.1-1.3s3 .4 4.1 1.3 2 2.2 2.6 3.8q.9 2.55.9 6c0 3.45-.3 4.4-.9 6.1s-1.5 2.9-2.6 3.8-2.5 1.3-4.1 1.3m0-2.4c1.6 0 2.8-.8 3.7-2.3s1.3-3.7 1.3-6.6-.2-3.5-.6-4.8-1-2.3-1.7-3-1.6-1-2.7-1c-1.6 0-2.8.8-3.7 2.3s-1.3 3.7-1.3 6.6.2 3.5.6 4.8 1 2.3 1.7 3c.8.7 1.7 1 2.7 1M467 510.5c-1.6 0-3-.4-4.1-1.3s-2-2.2-2.6-3.8c-.6-1.7-.9-3.7-.9-6.1s.3-4.4.9-6c.6-1.7 1.5-3 2.6-3.8 1.1-.9 2.5-1.3 4.1-1.3s3 .4 4.1 1.3 2 2.2 2.6 3.8q.9 2.55.9 6c0 3.45-.3 4.4-.9 6.1s-1.5 2.9-2.6 3.8-2.5 1.3-4.1 1.3m0-2.4c1.6 0 2.8-.8 3.7-2.3s1.3-3.7 1.3-6.6-.2-3.5-.6-4.8-1-2.3-1.7-3-1.6-1-2.7-1c-1.6 0-2.8.8-3.7 2.3s-1.3 3.7-1.3 6.6.2 3.5.6 4.8 1 2.3 1.7 3c.8.7 1.7 1 2.7 1M453.6 488.3v21.8H451v-19h-.1l-5.3 3.5v-2.7l5.5-3.6h2.6ZM596.8 510.5c-1.2 0-2.4-.2-3.4-.7s-1.8-1.2-2.4-2c-.6-.9-.9-1.9-1-3h2.6c0 1 .5 1.8 1.3 2.5.8.6 1.8 1 2.9 1s1.7-.2 2.4-.6 1.3-1 1.7-1.7.6-1.6.6-2.5-.2-1.8-.6-2.5c-.4-.8-1-1.3-1.7-1.8-.7-.4-1.6-.7-2.5-.7-.7 0-1.4 0-2.1.3-.7.2-1.3.5-1.7.8l-2.5-.3 1.3-10.7H603v2.3h-9.1l-.8 6.4h.1c.4-.4 1-.7 1.7-.9s1.4-.4 2.1-.4c1.3 0 2.5.3 3.6 1 1.1.6 1.9 1.5 2.5 2.6s.9 2.4.9 3.8-.3 2.6-.9 3.7-1.5 1.9-2.6 2.6c-1.1.6-2.3.9-3.7.9ZM583.7 488.3v21.8h-2.6v-19h-.1l-5.3 3.5v-2.7l5.5-3.6h2.6ZM569.8 488.3v21.8h-2.6v-19h-.1l-5.3 3.5v-2.7l5.5-3.6h2.6ZM711.9 510.5c-1.6 0-3-.4-4.1-1.3s-2-2.2-2.6-3.8c-.6-1.7-.9-3.7-.9-6.1s.3-4.4.9-6c.6-1.7 1.5-3 2.6-3.8 1.1-.9 2.5-1.3 4.1-1.3s3 .4 4.1 1.3 2 2.2 2.6 3.8q.9 2.55.9 6c0 3.45-.3 4.4-.9 6.1s-1.5 2.9-2.6 3.8-2.5 1.3-4.1 1.3m0-2.4c1.6 0 2.8-.8 3.7-2.3s1.3-3.7 1.3-6.6-.2-3.5-.6-4.8-1-2.3-1.7-3-1.6-1-2.7-1c-1.6 0-2.8.8-3.7 2.3s-1.3 3.7-1.3 6.6.2 3.5.6 4.8 1 2.3 1.7 3c.8.7 1.7 1 2.7 1M693.1 510.5c-1.4 0-2.7-.2-3.8-.7s-2-1.2-2.6-2c-.6-.9-1-1.9-1-3h2.7c0 .7.3 1.3.7 1.8s1 .9 1.7 1.2 1.5.4 2.3.4 1.8-.2 2.5-.5 1.3-.8 1.7-1.4.6-1.3.6-2-.2-1.5-.6-2.1-1-1.1-1.7-1.4c-.8-.3-1.7-.5-2.8-.5h-1.7V498h1.7c.9 0 1.6-.2 2.3-.5s1.2-.8 1.5-1.3c.4-.6.6-1.2.6-2s-.2-1.4-.5-1.9-.8-1-1.4-1.3-1.3-.5-2.1-.5-1.5.1-2.1.4c-.7.3-1.2.7-1.6 1.2s-.6 1.1-.7 1.9h-2.6c0-1.1.4-2.1 1-3s1.5-1.5 2.5-2c1.1-.5 2.2-.7 3.5-.7s2.5.3 3.5.8 1.7 1.3 2.2 2.1c.5.9.8 1.8.8 2.9s-.3 2.3-1 3.1c-.6.9-1.5 1.5-2.6 1.8v.2c1.4.2 2.5.8 3.2 1.8.8.9 1.2 2.1 1.2 3.5s-.3 2.3-1 3.2c-.6.9-1.5 1.7-2.6 2.2s-2.4.8-3.8.8ZM679.4 488.3v21.8h-2.6v-19h-.1l-5.3 3.5v-2.7l5.5-3.6h2.6ZM826.9 510.5c-1.2 0-2.4-.2-3.4-.7s-1.8-1.2-2.4-2c-.6-.9-.9-1.9-1-3h2.6c0 1 .5 1.8 1.3 2.5.8.6 1.8 1 2.9 1s1.7-.2 2.4-.6 1.3-1 1.7-1.7.6-1.6.6-2.5-.2-1.8-.6-2.5c-.4-.8-1-1.3-1.7-1.8-.7-.4-1.6-.7-2.5-.7-.7 0-1.4 0-2.1.3-.7.2-1.3.5-1.7.8l-2.5-.3 1.3-10.7h11.3v2.3H824l-.8 6.4h.1c.4-.4 1-.7 1.7-.9s1.4-.4 2.1-.4c1.3 0 2.5.3 3.6 1 1.1.6 1.9 1.5 2.5 2.6s.9 2.4.9 3.8-.3 2.6-.9 3.7-1.5 1.9-2.6 2.6c-1.1.6-2.3.9-3.7.9ZM800.4 505.7v-2.2l9.6-15.2h1.6v3.4h-1.1l-7.2 11.5v.2h12.9v2.3zm10.2 4.5v-21.8h2.5v21.8zM794.6 488.3v21.8H792v-19h-.1l-5.3 3.5v-2.7l5.5-3.6h2.6Z"
          class="result-2_svg__st0"></path>
</svg>