<svg xmlns="http://www.w3.org/2000/svg" width="105" height="30" fill="none" class="max-[360px]:hidden"><path fill="#fff" fill-rule="evenodd" d="m14.29 22.788-.082-.048zm-8.865-12.77-.373-.148a.7.7 0 0 1-.338.41l-.286.148a4.04 4.04 0 0 0-1.62 1.517 4.253 4.253 0 0 0 .068 4.469l.301.476.002.003c.4.619 1.006 1.07 1.707 1.264a2.9 2.9 0 0 0 2.098-.215l.004-.002a.65.65 0 0 1 .513-.04c.17.056.314.183.399.354.084.173.1.374.041.56a.7.7 0 0 1-.344.417l-.376.197.22.364c.271.448.641.826 1.082 1.101l.01.007a3.2 3.2 0 0 0 2.471.323l.008-.002 6.186-1.85h.001a.65.65 0 0 1 .51.058c.157.09.277.241.33.426a.77.77 0 0 1-.063.555.7.7 0 0 1-.405.344l-1.54.461-.702.211.557.477c.358.306.688.563.991.8v.001c.957.749 1.659 1.297 2.19 2.528l.003.009.005.009c.085.173.217.32.383.422.164.1.354.15.546.145a1.01 1.01 0 0 0 .729-.314 1.06 1.06 0 0 0 .298-.743v-1.698a.76.76 0 0 1 .151-.45.7.7 0 0 1 .372-.254h.002l3.928-1.012c.398-.093.749-.326.993-.656s.367-.734.35-1.145a1.8 1.8 0 0 0-.5-1.237l-.005-.004-.634-.641-.207-.21-.261.136-.255.132a.655.655 0 0 1-.664-.025.7.7 0 0 1-.254-.286v-.001a.73.73 0 0 1 .091-.792.7.7 0 0 1 .208-.167h.001l.433-.224.008-.004.008-.005a3.83 3.83 0 0 0 1.412-1.427 4 4 0 0 0 .519-1.962c0-.42-.08-.835-.235-1.223a3.2 3.2 0 0 0-.67-1.04h-.001l-.328-.339-.002-.001a.8.8 0 0 1-.17-.283l-.07-.22a5.5 5.5 0 0 0-1.784-2.606 5.24 5.24 0 0 0-2.893-1.146l-.14-.01-.115.078a2.62 2.62 0 0 0-1.054 1.499 2.7 2.7 0 0 0 .168 1.837l.003.006a.73.73 0 0 1-.092.792.7.7 0 0 1-.204.165.654.654 0 0 1-.664-.025.7.7 0 0 1-.254-.285 4.2 4.2 0 0 1-.384-2.288 4.15 4.15 0 0 1 .884-2.134l.311-.388-.445-.22a4.845 4.845 0 0 0-3.834-.211l-.485.177.294.425q.203.293.357.616l.001.002.188.388v.002a.75.75 0 0 1-.092.805.656.656 0 0 1-.954.078.7.7 0 0 1-.166-.218l-.184-.396a3.02 3.02 0 0 0-1.334-1.434 2.9 2.9 0 0 0-1.92-.284h-.002A7.1 7.1 0 0 0 7.11 6.66a7.43 7.43 0 0 0-2.058 3.21zm21.38 6.333-.22.25.206.262.375.478.013.017.015.015c.382.392.66.88.807 1.42.146.539.155 1.108.025 1.652a3.26 3.26 0 0 1-.763 1.446 3.1 3.1 0 0 1-1.336.86l-3.104.802-.3.078v1.13c0 .665-.255 1.3-.706 1.768-.451.466-1.06.725-1.69.725h-.005c-.454.005-.9-.126-1.285-.38a2.4 2.4 0 0 1-.882-1.05c-.775-1.796-2.034-2.538-3.47-3.386q-.322-.189-.654-.39l-.152-.093-.17.05-2.002.597h-.001c-.43.125-.876.184-1.323.178h-.01a4.4 4.4 0 0 1-2.339-.657l-.006-.004a4.53 4.53 0 0 1-1.88-2.193l-.101-.246-.266-.003a4.2 4.2 0 0 1-1.99-.532 4.36 4.36 0 0 1-1.529-1.434l-.002-.003-.316-.476a5.7 5.7 0 0 1-.835-2.16 5.8 5.8 0 0 1 .09-2.33 5.65 5.65 0 0 1 1.002-2.084 5.4 5.4 0 0 1 1.732-1.476l.131-.07.053-.14a8.9 8.9 0 0 1 2.499-3.566 8.44 8.44 0 0 1 3.836-1.881 4.3 4.3 0 0 1 2.636.355l.192.092.184-.108a6.2 6.2 0 0 1 3.363-.86 6.24 6.24 0 0 1 3.302 1.084l.431.298.094.064.114.006c1.34.066 2.631.55 3.704 1.388a6.9 6.9 0 0 1 2.309 3.318l.028.088.064.067.145.149a4.76 4.76 0 0 1 1.33 3.29 5.38 5.38 0 0 1-1.342 3.595" clip-rule="evenodd"></path><path fill="#fff" d="m36.63 24 2.182-13.09h2.447l-.358 2.13h.161a4.37 4.37 0 0 1 1.62-1.688q1.031-.613 2.335-.613 1.296 0 2.088.613.802.614 1.048 1.688h.137a4.56 4.56 0 0 1 1.764-1.68q1.134-.621 2.548-.621 1.764 0 2.71 1.125.955 1.116.58 3.358L54.426 24H51.87l1.432-8.54q.213-1.338-.409-1.926-.622-.597-1.628-.597-1.245 0-2.062.768-.819.758-1.006 1.951L46.79 24h-2.532l1.458-8.702q.17-1.074-.392-1.713-.555-.648-1.62-.648-.723 0-1.406.384a3.6 3.6 0 0 0-1.15 1.057 3.7 3.7 0 0 0-.622 1.551L39.179 24zm21.544 4.91q-.58 0-1.031-.095a3 3 0 0 1-.674-.187l.972-2.088q.674.187 1.202.145.537-.043 1.005-.444.47-.4.955-1.26l.477-.862-2.565-13.21h2.625l1.62 10.185h.136l5.011-10.185h2.838l-7.85 14.821q-.554 1.057-1.26 1.756a4.7 4.7 0 0 1-1.569 1.065 4.9 4.9 0 0 1-1.892.358M77.641 5.09V24h-3.998V5.09zm10.427 12.336h3.397l1.709 2.198 1.68 1.957 3.167 3.97h-3.73l-2.18-2.677-1.117-1.588zm10.239-2.88q0 3.093-1.173 5.262-1.163 2.17-3.176 3.315-2.003 1.136-4.505 1.136-2.52 0-4.525-1.145-2.002-1.146-3.166-3.315t-1.164-5.253q0-3.094 1.163-5.263t3.167-3.306q2.004-1.145 4.525-1.145 2.502 0 4.505 1.145 2.013 1.136 3.176 3.306 1.173 2.169 1.173 5.263m-4.053 0q0-2.004-.6-3.38-.59-1.376-1.672-2.086-1.08-.711-2.53-.711t-2.53.71-1.68 2.087q-.59 1.376-.59 3.38t.59 3.379q.6 1.375 1.68 2.086t2.53.711 2.53-.71q1.08-.712 1.672-2.087.6-1.376.6-3.38"></path></svg>