<svg xmlns="http://www.w3.org/2000/svg" fill="none" viewBox="0 0 31 19"><path fill="#ED0006" fill-rule="evenodd" d="M15.667 16.408a9 9 0 0 1-5.902 2.198c-5.025 0-9.098-4.12-9.098-9.204C.667 4.32 4.74.198 9.765.198c2.252 0 4.313.828 5.902 2.199A9 9 0 0 1 21.569.198c5.025 0 9.098 4.121 9.098 9.204s-4.074 9.204-9.098 9.204a9 9 0 0 1-5.902-2.199" clip-rule="evenodd"></path><path fill="#F9A000" fill-rule="evenodd" d="M15.667 16.408a9.23 9.23 0 0 0 3.197-7.006 9.23 9.23 0 0 0-3.197-7.005A9 9 0 0 1 21.569.198c5.025 0 9.098 4.121 9.098 9.204s-4.074 9.204-9.098 9.204a9 9 0 0 1-5.902-2.199" clip-rule="evenodd"></path><path fill="#FF5E00" fill-rule="evenodd" d="M15.667 16.407a9.23 9.23 0 0 0 3.197-7.005 9.23 9.23 0 0 0-3.197-7.005 9.23 9.23 0 0 0-3.197 7.005 9.23 9.23 0 0 0 3.197 7.005" clip-rule="evenodd"></path></svg>