<svg xmlns="http://www.w3.org/2000/svg" fill="none" viewBox="0 0 33 12"><path fill="#172B85" fill-rule="evenodd" d="M8.5 11.209H5.674L3.553 3.12c-.1-.372-.314-.701-.628-.856a9.2 9.2 0 0 0-2.592-.856v-.312h4.555c.628 0 1.1.468 1.178 1.011l1.1 5.834 2.826-6.845h2.749zm5.812 0h-2.67L13.84 1.097h2.67zm5.653-7.31c.078-.545.55-.856 1.1-.856a5 5 0 0 1 2.591.466l.471-2.177a6.8 6.8 0 0 0-2.434-.468c-2.591 0-4.477 1.4-4.477 3.345 0 1.478 1.336 2.255 2.279 2.722 1.02.467 1.412.778 1.334 1.245 0 .7-.786 1.01-1.57 1.01-.943 0-1.886-.233-2.749-.622l-.471 2.178c.943.388 1.963.545 2.906.545 2.905.077 4.711-1.323 4.711-3.423 0-2.644-3.691-2.8-3.691-3.965M33 11.209 30.88 1.097h-2.277c-.471 0-.943.312-1.1.778l-3.926 9.334h2.749l.549-1.478h3.377l.314 1.478zM28.996 3.82l.784 3.811h-2.198z" clip-rule="evenodd"></path></svg>