<svg xmlns="http://www.w3.org/2000/svg" fill="none" viewBox="0 0 28 29"><path fill="white" d="M8.202.768c-1.49.07-2.507.308-3.396.657-.92.359-1.7.84-2.477 1.619a6.9 6.9 0 0 0-1.61 2.48c-.345.892-.578 1.91-.644 3.4s-.08 1.97-.073 5.772c.007 3.8.024 4.278.096 5.772.07 1.489.308 2.506.657 3.396.359.92.84 1.7 1.619 2.477a6.86 6.86 0 0 0 2.483 1.61c.89.344 1.909.579 3.399.644s1.97.08 5.77.073c3.802-.007 4.28-.024 5.774-.095s2.505-.31 3.395-.657c.92-.36 1.7-.84 2.477-1.62a6.85 6.85 0 0 0 1.609-2.483c.345-.89.579-1.91.644-3.398.065-1.494.08-1.971.073-5.773s-.024-4.278-.095-5.771-.308-2.507-.657-3.397a6.9 6.9 0 0 0-1.62-2.477 6.8 6.8 0 0 0-2.482-1.61c-.891-.344-1.91-.58-3.4-.643S17.775.663 13.974.67 9.695.694 8.202.766m.164 25.309c-1.365-.06-2.106-.286-2.6-.476a4.4 4.4 0 0 1-1.612-1.044 4.3 4.3 0 0 1-1.05-1.608c-.192-.494-.423-1.234-.487-2.6-.07-1.474-.084-1.917-.092-5.655s.006-4.18.07-5.656c.059-1.364.287-2.106.477-2.6a4.34 4.34 0 0 1 1.044-1.612 4.3 4.3 0 0 1 1.608-1.05c.493-.193 1.234-.422 2.598-.487 1.476-.07 1.919-.084 5.656-.092s4.18.006 5.658.07c1.364.06 2.106.286 2.599.477.654.252 1.12.555 1.612 1.044s.795.954 1.05 1.609c.194.492.423 1.232.487 2.597.07 1.476.086 1.919.093 5.656s-.006 4.18-.071 5.656c-.06 1.365-.286 2.106-.476 2.6a4.34 4.34 0 0 1-1.045 1.613 4.3 4.3 0 0 1-1.608 1.05c-.493.192-1.234.422-2.597.487-1.476.069-1.92.084-5.657.092s-4.181-.007-5.657-.071M19.779 7.187a1.68 1.68 0 1 0 3.36-.006 1.68 1.68 0 0 0-3.36.006M6.812 14.683a7.19 7.19 0 0 0 14.378-.028 7.19 7.19 0 0 0-14.378.028m2.523-.005a4.667 4.667 0 1 1 9.334-.022 4.667 4.667 0 0 1-9.334.024"></path></svg>