<svg xmlns="http://www.w3.org/2000/svg" fill="none" viewBox="0 0 22 22" class="h-[22px] min-w-[22px]"><path fill="#007AFF" d="M21.3 11a1.53 1.53 0 0 0-.57-1.194L19.378 8.68l.62-1.611a1.544 1.544 0 0 0-1.195-2.067l-1.735-.3-.27-1.705a1.545 1.545 0 0 0-2.067-1.194l-1.651.609-1.086-1.343a1.583 1.583 0 0 0-2.388 0L8.479 2.422l-1.61-.62A1.545 1.545 0 0 0 4.8 2.999l-.299 1.735L2.797 5a1.545 1.545 0 0 0-1.194 2.068l.609 1.652L.869 9.805a1.545 1.545 0 0 0 0 2.388l1.353 1.127-.62 1.61a1.545 1.545 0 0 0 1.195 2.068l1.734.3.27 1.705a1.545 1.545 0 0 0 2.067 1.194l1.652-.61 1.086 1.343a1.545 1.545 0 0 0 2.388 0l1.126-1.353 1.611.62a1.544 1.544 0 0 0 2.068-1.194l.3-1.736L18.801 17a1.545 1.545 0 0 0 1.195-2.068l-.609-1.652 1.343-1.085A1.53 1.53 0 0 0 21.3 11"></path><path fill="#F5F5F5" d="M9.39 14.537a2.23 2.23 0 0 1-1.344-.446l-1.82-1.366a.75.75 0 1 1 .899-1.2l1.821 1.366a.755.755 0 0 0 1.043-.14l4.344-5.587a.75.75 0 1 1 1.185.922l-4.346 5.586a2.26 2.26 0 0 1-1.782.865"></path></svg>