<svg xmlns="http://www.w3.org/2000/svg" fill="none" viewBox="0 0 39 38" class="h-[38px] w-[38px]"><path fill="#2B2D42" d="M36.294 4.538a2.643 2.643 0 0 0-2.499-2.498c-2.725-.149-8.058-.004-13.157 2.633-2.6 1.345-5.348 3.625-7.542 6.255l-.08.097-4.98.385c-.82.063-1.55.493-2.003 1.178l-3.397 5.138a1.81 1.81 0 0 0-.146 1.741c.252.57.77.967 1.387 1.063l4.194.65q-.022.122-.043.244c-.14.835.137 1.694.74 2.298l5.844 5.843a2.65 2.65 0 0 0 2.298.74q.122-.02.244-.043l.65 4.195a1.821 1.821 0 0 0 2.803 1.24l5.138-3.397a2.63 2.63 0 0 0 1.178-2.003l.385-4.979.098-.08c2.63-2.194 4.91-4.943 6.254-7.543 2.638-5.1 2.782-10.432 2.634-13.157m-11.648 26.1-4.914 3.25-.634-4.089c2.078-.61 4.132-1.588 6.09-2.899l-.25 3.244a.65.65 0 0 1-.292.494m-8.625-2.482-5.844-5.843a.65.65 0 0 1-.184-.56c.174-1.04.444-2.028.778-2.96l8.767 8.768a17 17 0 0 1-2.957.78.65.65 0 0 1-.56-.185M8.19 13.396l3.243-.25c-1.31 1.957-2.288 4.012-2.9 6.09l-4.087-.634 3.25-4.915a.65.65 0 0 1 .494-.29m17.94 10.312c-1.61 1.342-3.172 2.313-4.611 3.016l-9.91-9.91c.92-1.879 2.044-3.444 3.016-4.61 2.03-2.434 4.556-4.534 6.929-5.761 4.68-2.42 9.61-2.551 12.133-2.414a.653.653 0 0 1 .617.618c.138 2.522.007 7.453-2.413 12.133-1.227 2.373-3.327 4.898-5.761 6.928"></path><path fill="#007AFF" d="M25.624 17.688c1.275 0 2.55-.486 3.521-1.456a4.95 4.95 0 0 0 1.459-3.522c0-1.33-.518-2.58-1.459-3.522a4.986 4.986 0 0 0-7.043 0 4.95 4.95 0 0 0-1.459 3.522c0 1.33.518 2.581 1.459 3.522a4.96 4.96 0 0 0 3.521 1.456m-2.113-7.09a2.98 2.98 0 0 1 2.112-.875c.766 0 1.53.291 2.113.874.565.564.875 1.315.875 2.113s-.31 1.549-.875 2.113a2.99 2.99 0 0 1-4.226 0 2.97 2.97 0 0 1-.875-2.113c0-.798.311-1.549.875-2.113M3.35 30.018c.254 0 .51-.097.704-.291l3.252-3.253a.996.996 0 1 0-1.409-1.408l-3.252 3.252a.996.996 0 0 0 .705 1.7m6.936-1.972a.996.996 0 0 0-1.408 0L2.625 34.3a.996.996 0 1 0 1.409 1.408l6.252-6.252a.996.996 0 0 0 0-1.409m1.572 2.98L8.606 34.28a.996.996 0 1 0 1.409 1.408l3.252-3.252a.996.996 0 1 0-1.409-1.408"></path></svg>