<svg xmlns="http://www.w3.org/2000/svg" fill="none" viewBox="0 0 30 38" class="h-[38px] w-[38px]"><path fill="#2C3345" d="M26.128 4.979H22.69V3.44c0-.498-.543-.724-1.04-.724h-2.67C18.348.907 16.765.003 14.956.003a4.12 4.12 0 0 0-4.026 2.714H8.305c-.497 0-.995.226-.995.724v1.538H3.872a3.845 3.845 0 0 0-3.8 3.664v25.92c0 1.99 1.81 3.437 3.8 3.437h22.256c1.99 0 3.8-1.448 3.8-3.438V8.642a3.845 3.845 0 0 0-3.8-3.663M9.119 4.526h2.488a.995.995 0 0 0 .86-.814 2.624 2.624 0 0 1 2.488-2.035 2.58 2.58 0 0 1 2.443 2.035.995.995 0 0 0 .904.814h2.579v3.62H9.119zm18.999 30.036c0 .995-.995 1.629-1.99 1.629H3.872c-.995 0-1.99-.634-1.99-1.629V8.642a2.035 2.035 0 0 1 1.99-1.854H7.31v2.307a.95.95 0 0 0 .995.86H21.65a.995.995 0 0 0 1.04-.86V6.788h3.439c1.04.02 1.898.819 1.99 1.855z"></path><path fill="#007AFF" d="M11.517 20.223a.905.905 0 0 0-1.267-.045l-2.895 2.759-1.221-1.267a.905.905 0 0 0-1.267-.045.95.95 0 0 0 0 1.312l1.855 1.9a.81.81 0 0 0 .633.271.9.9 0 0 0 .634-.271l3.528-3.348a.86.86 0 0 0 0-1.266m12.982 1.945H14.095a.905.905 0 1 0 0 1.81H24.5a.905.905 0 1 0 0-1.81m-12.982-9.183a.905.905 0 0 0-1.267-.045L7.355 15.7l-1.221-1.267a.905.905 0 0 0-1.267-.045.95.95 0 0 0 0 1.311l1.855 1.9a.81.81 0 0 0 .633.272.9.9 0 0 0 .634-.272l3.528-3.347a.86.86 0 0 0 0-1.267m12.982 1.945H14.095a.905.905 0 1 0 0 1.81H24.5a.905.905 0 1 0 0-1.81M11.517 27.46a.905.905 0 0 0-1.267-.045l-2.895 2.76-1.221-1.267a.905.905 0 0 0-1.267-.045.95.95 0 0 0 0 1.311l1.855 1.9a.82.82 0 0 0 .633.272.9.9 0 0 0 .634-.272l3.528-3.347a.86.86 0 0 0 0-1.267m12.982 1.945H14.095a.905.905 0 1 0 0 1.81H24.5a.905.905 0 1 0 0-1.81"></path></svg>