<svg xmlns="http://www.w3.org/2000/svg" fill="none" viewBox="0 0 39 38" class="h-[38px] w-[38px]"><path fill="#2B2D42" fill-rule="evenodd" stroke="#fff" d="M18.813 20.354v5.417a4.06 4.06 0 0 1-2.508 3.753 4.1 4.1 0 0 1-1.555.31H5.271a4.06 4.06 0 0 1-3.753-2.509 4.1 4.1 0 0 1-.31-1.554V12.229a4.063 4.063 0 0 1 4.063-4.062h7.004c1.077 0 2.11.428 2.872 1.19l2.475 2.475a4.06 4.06 0 0 1 1.19 2.873v2.94h2.709V8.168a4.06 4.06 0 0 1 2.508-3.754 4.1 4.1 0 0 1 1.554-.309H28.5a1.354 1.354 0 1 1 0 2.709h-2.917a1.35 1.35 0 0 0-1.354 1.354v9.479H28.5a1.354 1.354 0 0 1 0 2.708h-4.27v9.48a1.35 1.35 0 0 0 1.353 1.353H28.5a1.354 1.354 0 0 1 0 2.709h-2.917a4.06 4.06 0 0 1-3.753-2.508 4.1 4.1 0 0 1-.31-1.555v-9.479zm-9.48-9.479H5.271a1.354 1.354 0 0 0-1.354 1.354v13.542a1.35 1.35 0 0 0 1.354 1.354h9.48a1.35 1.35 0 0 0 1.353-1.354v-8.125h-2.708a4.06 4.06 0 0 1-2.872-1.19 4.06 4.06 0 0 1-1.19-2.873zm6.771 4.062v-.232c0-.36-.143-.704-.397-.958l-2.475-2.475a1.35 1.35 0 0 0-.957-.397h-.233v2.708a1.35 1.35 0 0 0 1.354 1.354z" clip-rule="evenodd"></path><rect width="7.6" height="7.6" x="28.835" y="15.2" stroke="#007AFF" stroke-width="1.448" rx="1.99"></rect><rect width="7.6" height="7.6" x="28.835" y="1.438" stroke="#007AFF" stroke-width="1.448" rx="1.99"></rect><rect width="7.6" height="7.6" x="28.835" y="28.962" stroke="#007AFF" stroke-width="1.448" rx="1.99"></rect></svg>