<svg xmlns="http://www.w3.org/2000/svg" fill="none" viewBox="0 0 16 16" class="h-4 w-4">
<g stroke="#454f69" stroke-linecap="round" stroke-linejoin="round" stroke-width="1.333" clip-path="url(#checkmark-order_svg__a)">
<path d="m8 10 1.333 1.333L12 8.667"></path>
<path d="M13.333 5.333H6.667c-.737 0-1.334.597-1.334 1.334v6.666c0 .737.597 1.334 1.334 1.334h6.666c.737 0 1.334-.597 1.334-1.334V6.667c0-.737-.597-1.334-1.334-1.334"></path>
<path d="M2.667 10.667c-.734 0-1.334-.6-1.334-1.334V2.667c0-.734.6-1.334 1.334-1.334h6.666c.734 0 1.334.6 1.334 1.334"></path>
</g>
<defs>
<clipPath id="checkmark-order_svg__a">
<path fill="#fff" d="M0 0h16v16H0z"></path>
</clipPath>
</defs>
</svg>